<mxfile host="app.diagrams.net" modified="2022-08-03T07:49:32.616Z" agent="5.0 (Macintosh; Intel Mac OS X 10_15_7) AppleWebKit/537.36 (KHTML, like Gecko) Chrome/103.0.0.0 Safari/537.36" etag="6ou7vwXhuOCaluPZ4JDB" version="20.2.2" type="github">
  <diagram id="CNCl4T3S5msRiCX5xZWB" name="第 1 页">
    <mxGraphModel dx="1178" dy="797" grid="1" gridSize="10" guides="1" tooltips="1" connect="1" arrows="1" fold="1" page="1" pageScale="1" pageWidth="1169" pageHeight="1654" math="0" shadow="0">
      <root>
        <mxCell id="0" />
        <mxCell id="1" parent="0" />
        <mxCell id="IYZk6ylwCa9gHzBq0iEa-6" style="edgeStyle=orthogonalEdgeStyle;rounded=0;orthogonalLoop=1;jettySize=auto;html=1;entryX=0;entryY=0.5;entryDx=0;entryDy=0;fontSize=18;strokeWidth=2;strokeColor=#FF3333;" edge="1" parent="1" source="IYZk6ylwCa9gHzBq0iEa-1" target="IYZk6ylwCa9gHzBq0iEa-5">
          <mxGeometry relative="1" as="geometry" />
        </mxCell>
        <mxCell id="IYZk6ylwCa9gHzBq0iEa-1" value="&lt;b&gt;&lt;font style=&quot;font-size: 18px;&quot;&gt;Process A&lt;/font&gt;&lt;/b&gt;" style="rounded=1;whiteSpace=wrap;html=1;fillColor=#6a00ff;fontColor=#ffffff;strokeColor=#3700CC;" vertex="1" parent="1">
          <mxGeometry x="300" y="280" width="120" height="50" as="geometry" />
        </mxCell>
        <mxCell id="IYZk6ylwCa9gHzBq0iEa-7" style="edgeStyle=orthogonalEdgeStyle;rounded=0;orthogonalLoop=1;jettySize=auto;html=1;entryX=1;entryY=0.5;entryDx=0;entryDy=0;fontSize=18;endSize=7;strokeColor=#FF3333;strokeWidth=2;" edge="1" parent="1" source="IYZk6ylwCa9gHzBq0iEa-3" target="IYZk6ylwCa9gHzBq0iEa-5">
          <mxGeometry relative="1" as="geometry" />
        </mxCell>
        <mxCell id="IYZk6ylwCa9gHzBq0iEa-3" value="&lt;b&gt;&lt;font style=&quot;font-size: 18px;&quot;&gt;Process B&lt;/font&gt;&lt;/b&gt;" style="rounded=1;whiteSpace=wrap;html=1;fillColor=#6a00ff;fontColor=#ffffff;strokeColor=#3700CC;" vertex="1" parent="1">
          <mxGeometry x="585" y="280" width="120" height="50" as="geometry" />
        </mxCell>
        <mxCell id="IYZk6ylwCa9gHzBq0iEa-4" value="" style="rounded=0;whiteSpace=wrap;html=1;fontSize=18;fillColor=none;strokeWidth=2;dashed=1;" vertex="1" parent="1">
          <mxGeometry x="300" y="400" width="400" height="110" as="geometry" />
        </mxCell>
        <mxCell id="IYZk6ylwCa9gHzBq0iEa-5" value="Pipe Buffer File Descriptor" style="rounded=1;whiteSpace=wrap;html=1;fontSize=18;strokeWidth=2;fillColor=#60a917;fontColor=#ffffff;strokeColor=#2D7600;" vertex="1" parent="1">
          <mxGeometry x="390" y="432.5" width="230" height="45" as="geometry" />
        </mxCell>
        <mxCell id="IYZk6ylwCa9gHzBq0iEa-8" value="&lt;b&gt;Kernel&lt;/b&gt;" style="text;html=1;align=center;verticalAlign=middle;resizable=0;points=[];autosize=1;strokeColor=none;fillColor=none;fontSize=18;" vertex="1" parent="1">
          <mxGeometry x="470" y="520" width="80" height="40" as="geometry" />
        </mxCell>
      </root>
    </mxGraphModel>
  </diagram>
</mxfile>
